<mxfile host="app.diagrams.net" modified="2022-05-17T08:34:32.440Z" agent="5.0 (Windows NT 10.0; Win64; x64) AppleWebKit/537.36 (KHTML, like Gecko) Chrome/101.0.4951.64 Safari/537.36" etag="HjoHw-6QY9RYhniXqob8" version="18.0.5" type="github">
  <diagram id="lVrqFfMmjg_SoE3d6MwP" name="Page-1">
    <mxGraphModel dx="761" dy="370" grid="1" gridSize="10" guides="1" tooltips="1" connect="1" arrows="1" fold="1" page="1" pageScale="1" pageWidth="827" pageHeight="1169" math="0" shadow="0">
      <root>
        <mxCell id="0" />
        <mxCell id="1" parent="0" />
        <mxCell id="Exp_cPD3oNNeTRAkNDdM-9" style="edgeStyle=orthogonalEdgeStyle;rounded=0;orthogonalLoop=1;jettySize=auto;html=1;exitX=0.5;exitY=1;exitDx=0;exitDy=0;" edge="1" parent="1" source="Exp_cPD3oNNeTRAkNDdM-4" target="Exp_cPD3oNNeTRAkNDdM-5">
          <mxGeometry relative="1" as="geometry" />
        </mxCell>
        <mxCell id="Exp_cPD3oNNeTRAkNDdM-4" value="输入图像" style="ellipse;whiteSpace=wrap;html=1;" vertex="1" parent="1">
          <mxGeometry x="395" y="290" width="110" height="60" as="geometry" />
        </mxCell>
        <mxCell id="Exp_cPD3oNNeTRAkNDdM-10" style="edgeStyle=orthogonalEdgeStyle;rounded=0;orthogonalLoop=1;jettySize=auto;html=1;entryX=0.5;entryY=0;entryDx=0;entryDy=0;" edge="1" parent="1" source="Exp_cPD3oNNeTRAkNDdM-5" target="Exp_cPD3oNNeTRAkNDdM-6">
          <mxGeometry relative="1" as="geometry" />
        </mxCell>
        <mxCell id="Exp_cPD3oNNeTRAkNDdM-5" value="指针型仪表目标检测算法" style="rounded=0;whiteSpace=wrap;html=1;" vertex="1" parent="1">
          <mxGeometry x="390" y="380" width="120" height="70" as="geometry" />
        </mxCell>
        <mxCell id="Exp_cPD3oNNeTRAkNDdM-11" style="edgeStyle=orthogonalEdgeStyle;rounded=0;orthogonalLoop=1;jettySize=auto;html=1;exitX=0.5;exitY=1;exitDx=0;exitDy=0;entryX=0.491;entryY=0.016;entryDx=0;entryDy=0;entryPerimeter=0;" edge="1" parent="1" source="Exp_cPD3oNNeTRAkNDdM-6" target="Exp_cPD3oNNeTRAkNDdM-7">
          <mxGeometry relative="1" as="geometry" />
        </mxCell>
        <mxCell id="Exp_cPD3oNNeTRAkNDdM-6" value="电流和电压仪表目标提取" style="rounded=0;whiteSpace=wrap;html=1;" vertex="1" parent="1">
          <mxGeometry x="390" y="490" width="120" height="65" as="geometry" />
        </mxCell>
        <mxCell id="Exp_cPD3oNNeTRAkNDdM-12" style="edgeStyle=orthogonalEdgeStyle;rounded=0;orthogonalLoop=1;jettySize=auto;html=1;entryX=0.5;entryY=0;entryDx=0;entryDy=0;" edge="1" parent="1" source="Exp_cPD3oNNeTRAkNDdM-7" target="Exp_cPD3oNNeTRAkNDdM-8">
          <mxGeometry relative="1" as="geometry" />
        </mxCell>
        <mxCell id="Exp_cPD3oNNeTRAkNDdM-24" style="edgeStyle=orthogonalEdgeStyle;rounded=0;orthogonalLoop=1;jettySize=auto;html=1;exitX=0;exitY=0.5;exitDx=0;exitDy=0;entryX=-0.002;entryY=0.727;entryDx=0;entryDy=0;entryPerimeter=0;" edge="1" parent="1" source="Exp_cPD3oNNeTRAkNDdM-7" target="Exp_cPD3oNNeTRAkNDdM-19">
          <mxGeometry relative="1" as="geometry" />
        </mxCell>
        <mxCell id="Exp_cPD3oNNeTRAkNDdM-25" value="刻度线文本示数坐标" style="edgeLabel;html=1;align=center;verticalAlign=top;resizable=0;points=[];horizontal=0;" vertex="1" connectable="0" parent="Exp_cPD3oNNeTRAkNDdM-24">
          <mxGeometry x="0.126" relative="1" as="geometry">
            <mxPoint x="-20" y="-15" as="offset" />
          </mxGeometry>
        </mxCell>
        <mxCell id="Exp_cPD3oNNeTRAkNDdM-7" value="文本目标检测模型" style="rounded=0;whiteSpace=wrap;html=1;" vertex="1" parent="1">
          <mxGeometry x="390" y="585" width="120" height="65" as="geometry" />
        </mxCell>
        <mxCell id="Exp_cPD3oNNeTRAkNDdM-21" style="edgeStyle=orthogonalEdgeStyle;rounded=0;orthogonalLoop=1;jettySize=auto;html=1;exitX=0.5;exitY=1;exitDx=0;exitDy=0;entryX=0.5;entryY=0;entryDx=0;entryDy=0;" edge="1" parent="1" source="Exp_cPD3oNNeTRAkNDdM-8" target="Exp_cPD3oNNeTRAkNDdM-19">
          <mxGeometry relative="1" as="geometry" />
        </mxCell>
        <mxCell id="Exp_cPD3oNNeTRAkNDdM-8" value="表盘定位和中心定位" style="rounded=0;whiteSpace=wrap;html=1;" vertex="1" parent="1">
          <mxGeometry x="390" y="690" width="120" height="65" as="geometry" />
        </mxCell>
        <mxCell id="Exp_cPD3oNNeTRAkNDdM-16" style="edgeStyle=orthogonalEdgeStyle;rounded=0;orthogonalLoop=1;jettySize=auto;html=1;exitX=0.5;exitY=1;exitDx=0;exitDy=0;entryX=0.5;entryY=0;entryDx=0;entryDy=0;" edge="1" parent="1" source="Exp_cPD3oNNeTRAkNDdM-13" target="Exp_cPD3oNNeTRAkNDdM-15">
          <mxGeometry relative="1" as="geometry" />
        </mxCell>
        <mxCell id="Exp_cPD3oNNeTRAkNDdM-13" value="大刻度线和指针定位识别" style="rounded=0;whiteSpace=wrap;html=1;" vertex="1" parent="1">
          <mxGeometry x="390" y="875" width="120" height="65" as="geometry" />
        </mxCell>
        <mxCell id="Exp_cPD3oNNeTRAkNDdM-18" style="edgeStyle=orthogonalEdgeStyle;rounded=0;orthogonalLoop=1;jettySize=auto;html=1;exitX=0.5;exitY=1;exitDx=0;exitDy=0;entryX=0.5;entryY=0;entryDx=0;entryDy=0;" edge="1" parent="1" source="Exp_cPD3oNNeTRAkNDdM-15" target="Exp_cPD3oNNeTRAkNDdM-17">
          <mxGeometry relative="1" as="geometry" />
        </mxCell>
        <mxCell id="Exp_cPD3oNNeTRAkNDdM-15" value="示数读取" style="rounded=0;whiteSpace=wrap;html=1;" vertex="1" parent="1">
          <mxGeometry x="395" y="960" width="110" height="40" as="geometry" />
        </mxCell>
        <mxCell id="Exp_cPD3oNNeTRAkNDdM-17" value="结束" style="ellipse;whiteSpace=wrap;html=1;" vertex="1" parent="1">
          <mxGeometry x="395" y="1025" width="110" height="60" as="geometry" />
        </mxCell>
        <mxCell id="Exp_cPD3oNNeTRAkNDdM-22" style="edgeStyle=orthogonalEdgeStyle;rounded=0;orthogonalLoop=1;jettySize=auto;html=1;exitX=0.5;exitY=1;exitDx=0;exitDy=0;" edge="1" parent="1" source="Exp_cPD3oNNeTRAkNDdM-19" target="Exp_cPD3oNNeTRAkNDdM-13">
          <mxGeometry relative="1" as="geometry" />
        </mxCell>
        <mxCell id="Exp_cPD3oNNeTRAkNDdM-19" value="极坐标转换" style="rounded=0;whiteSpace=wrap;html=1;" vertex="1" parent="1">
          <mxGeometry x="390" y="780" width="120" height="65" as="geometry" />
        </mxCell>
      </root>
    </mxGraphModel>
  </diagram>
</mxfile>
